<svg width="189" height="88" viewBox="0 0 189 88" fill="none" xmlns="http://www.w3.org/2000/svg">
<path d="M95.4448 61.8111C83.1557 64.8747 68.4822 65.4569 57.6823 57.7196C50.7805 52.775 47.1155 42.7764 49.6949 34.6608C52.1309 26.9961 57.8196 20.2618 66.3442 20.4671C70.7875 20.574 74.6186 22.6183 75.4275 27.2976C76.6632 34.4465 69.5316 41.8444 63.8613 44.9541C46.1657 54.6588 21.1325 54.1188 4.27532 42.8543" stroke="#1CB066" stroke-width="3" stroke-linecap="round"/>
<path d="M11.7051 56.0591C9.64315 53.1778 5.14041 46.4561 3.62514 42.6198" stroke="#1CB066" stroke-width="3" stroke-linecap="round"/>
<path d="M3.62504 42.6196C7.13768 42.1561 15.1221 40.8504 18.9584 39.3351" stroke="#1CB066" stroke-width="3" stroke-linecap="round"/>
<path d="M109.598 68.3939C108.614 68.3939 107.672 68.2559 106.772 67.9799C105.872 67.6919 105.158 67.3259 104.63 66.8819L105.44 65.0639C105.944 65.4599 106.568 65.7899 107.312 66.0539C108.056 66.3179 108.818 66.4499 109.598 66.4499C110.258 66.4499 110.792 66.3779 111.2 66.2339C111.608 66.0899 111.908 65.8979 112.1 65.6579C112.292 65.4059 112.388 65.1239 112.388 64.8119C112.388 64.4279 112.25 64.1219 111.974 63.8939C111.698 63.6539 111.338 63.4679 110.894 63.3359C110.462 63.1919 109.976 63.0599 109.436 62.9399C108.908 62.8199 108.374 62.6819 107.834 62.5259C107.306 62.3579 106.82 62.1479 106.376 61.8959C105.944 61.6319 105.59 61.2839 105.314 60.8519C105.038 60.4199 104.9 59.8679 104.9 59.1959C104.9 58.5119 105.08 57.8879 105.44 57.3239C105.812 56.7479 106.37 56.2919 107.114 55.9559C107.87 55.6079 108.824 55.4339 109.976 55.4339C110.732 55.4339 111.482 55.5299 112.226 55.7219C112.97 55.9139 113.618 56.1899 114.17 56.5499L113.432 58.3679C112.868 58.0319 112.286 57.7859 111.686 57.6299C111.086 57.4619 110.51 57.3779 109.958 57.3779C109.31 57.3779 108.782 57.4559 108.374 57.6119C107.978 57.7679 107.684 57.9719 107.492 58.2239C107.312 58.4759 107.222 58.7639 107.222 59.0879C107.222 59.4719 107.354 59.7839 107.618 60.0239C107.894 60.2519 108.248 60.4319 108.68 60.5639C109.124 60.6959 109.616 60.8279 110.156 60.9599C110.696 61.0799 111.23 61.2179 111.758 61.3739C112.298 61.5299 112.784 61.7339 113.216 61.9859C113.66 62.2379 114.014 62.5799 114.278 63.0119C114.554 63.4439 114.692 63.9899 114.692 64.6499C114.692 65.3219 114.506 65.9459 114.134 66.5219C113.774 67.0859 113.216 67.5419 112.46 67.8899C111.704 68.2259 110.75 68.3939 109.598 68.3939ZM122.718 68.2139V66.2699L122.592 65.8559V62.4539C122.592 61.7939 122.394 61.2839 121.998 60.9239C121.602 60.5519 121.002 60.3659 120.198 60.3659C119.658 60.3659 119.124 60.4499 118.596 60.6179C118.08 60.7859 117.642 61.0199 117.282 61.3199L116.4 59.6819C116.916 59.2859 117.528 58.9919 118.236 58.7999C118.956 58.5959 119.7 58.4939 120.468 58.4939C121.86 58.4939 122.934 58.8299 123.69 59.5019C124.458 60.1619 124.842 61.1879 124.842 62.5799V68.2139H122.718ZM119.694 68.3399C118.974 68.3399 118.344 68.2199 117.804 67.9799C117.264 67.7279 116.844 67.3859 116.544 66.9539C116.256 66.5099 116.112 66.0119 116.112 65.4599C116.112 64.9199 116.238 64.4339 116.49 64.0019C116.754 63.5699 117.18 63.2279 117.768 62.9759C118.356 62.7239 119.136 62.5979 120.108 62.5979H122.898V64.0919H120.27C119.502 64.0919 118.986 64.2179 118.722 64.4699C118.458 64.7099 118.326 65.0099 118.326 65.3699C118.326 65.7779 118.488 66.1019 118.812 66.3419C119.136 66.5819 119.586 66.7019 120.162 66.7019C120.714 66.7019 121.206 66.5759 121.638 66.3239C122.082 66.0719 122.4 65.6999 122.592 65.2079L122.97 66.5579C122.754 67.1219 122.364 67.5599 121.8 67.8719C121.248 68.1839 120.546 68.3399 119.694 68.3399ZM130.11 68.2139L125.988 58.6019H128.328L131.874 67.0799H130.722L134.394 58.6019H136.554L132.432 68.2139H130.11ZM142.215 68.3399C141.147 68.3399 140.211 68.1299 139.407 67.7099C138.615 67.2779 137.997 66.6899 137.553 65.9459C137.121 65.2019 136.905 64.3559 136.905 63.4079C136.905 62.4479 137.115 61.6019 137.535 60.8699C137.967 60.1259 138.555 59.5439 139.299 59.1239C140.055 58.7039 140.913 58.4939 141.873 58.4939C142.809 58.4939 143.643 58.6979 144.375 59.1059C145.107 59.5139 145.683 60.0899 146.103 60.8339C146.523 61.5779 146.733 62.4539 146.733 63.4619C146.733 63.5579 146.727 63.6659 146.715 63.7859C146.715 63.9059 146.709 64.0199 146.697 64.1279H138.687V62.6339H145.509L144.627 63.1019C144.639 62.5499 144.525 62.0639 144.285 61.6439C144.045 61.2239 143.715 60.8939 143.295 60.6539C142.887 60.4139 142.413 60.2939 141.873 60.2939C141.321 60.2939 140.835 60.4139 140.415 60.6539C140.007 60.8939 139.683 61.2299 139.443 61.6619C139.215 62.0819 139.101 62.5799 139.101 63.1559V63.5159C139.101 64.0919 139.233 64.6019 139.497 65.0459C139.761 65.4899 140.133 65.8319 140.613 66.0719C141.093 66.3119 141.645 66.4319 142.269 66.4319C142.809 66.4319 143.295 66.3479 143.727 66.1799C144.159 66.0119 144.543 65.7479 144.879 65.3879L146.085 66.7739C145.653 67.2779 145.107 67.6679 144.447 67.9439C143.799 68.2079 143.055 68.3399 142.215 68.3399ZM153.023 68.2139V66.6479L158.027 61.8959C158.447 61.4999 158.759 61.1519 158.963 60.8519C159.167 60.5519 159.299 60.2759 159.359 60.0239C159.431 59.7599 159.467 59.5139 159.467 59.2859C159.467 58.7099 159.269 58.2659 158.873 57.9539C158.477 57.6299 157.895 57.4679 157.127 57.4679C156.515 57.4679 155.957 57.5759 155.453 57.7919C154.961 58.0079 154.535 58.3379 154.175 58.7819L152.537 57.5219C153.029 56.8619 153.689 56.3519 154.517 55.9919C155.357 55.6199 156.293 55.4339 157.325 55.4339C158.237 55.4339 159.029 55.5839 159.701 55.8839C160.385 56.1719 160.907 56.5859 161.267 57.1259C161.639 57.6659 161.825 58.3079 161.825 59.0519C161.825 59.4599 161.771 59.8679 161.663 60.2759C161.555 60.6719 161.351 61.0919 161.051 61.5359C160.751 61.9799 160.313 62.4779 159.737 63.0299L155.435 67.1159L154.949 66.2339H162.311V68.2139H153.023ZM167.837 68.3939C166.949 68.3939 166.079 68.2679 165.227 68.0159C164.387 67.7519 163.679 67.3919 163.103 66.9359L164.093 65.1179C164.549 65.4899 165.101 65.7899 165.749 66.0179C166.409 66.2459 167.093 66.3599 167.801 66.3599C168.629 66.3599 169.277 66.1859 169.745 65.8379C170.225 65.4899 170.465 65.0219 170.465 64.4339C170.465 64.0379 170.363 63.6899 170.159 63.3899C169.967 63.0899 169.619 62.8619 169.115 62.7059C168.623 62.5499 167.945 62.4719 167.081 62.4719H164.039L164.687 55.6139H172.085V57.5759H165.551L166.775 56.4599L166.289 61.5899L165.065 60.4919H167.603C168.851 60.4919 169.853 60.6599 170.609 60.9959C171.377 61.3199 171.935 61.7759 172.283 62.3639C172.643 62.9399 172.823 63.5999 172.823 64.3439C172.823 65.0759 172.643 65.7479 172.283 66.3599C171.923 66.9719 171.371 67.4639 170.627 67.8359C169.895 68.2079 168.965 68.3939 167.837 68.3939ZM175.761 68.2139L184.365 55.6139H186.129L177.525 68.2139H175.761ZM176.805 62.3999C176.217 62.3999 175.695 62.2559 175.239 61.9679C174.783 61.6799 174.429 61.2779 174.177 60.7619C173.925 60.2459 173.799 59.6399 173.799 58.9439C173.799 58.2479 173.925 57.6419 174.177 57.1259C174.429 56.6099 174.783 56.2079 175.239 55.9199C175.695 55.6319 176.217 55.4879 176.805 55.4879C177.417 55.4879 177.945 55.6319 178.389 55.9199C178.845 56.2079 179.199 56.6099 179.451 57.1259C179.703 57.6419 179.829 58.2479 179.829 58.9439C179.829 59.6399 179.703 60.2459 179.451 60.7619C179.199 61.2779 178.845 61.6799 178.389 61.9679C177.945 62.2559 177.417 62.3999 176.805 62.3999ZM176.823 61.1399C177.303 61.1399 177.675 60.9539 177.939 60.5819C178.215 60.1979 178.353 59.6519 178.353 58.9439C178.353 58.2359 178.215 57.6959 177.939 57.3239C177.675 56.9399 177.303 56.7479 176.823 56.7479C176.343 56.7479 175.959 56.9399 175.671 57.3239C175.395 57.7079 175.257 58.2479 175.257 58.9439C175.257 59.6399 175.395 60.1799 175.671 60.5639C175.959 60.9479 176.343 61.1399 176.823 61.1399ZM185.067 68.3399C184.479 68.3399 183.957 68.1959 183.501 67.9079C183.045 67.6199 182.691 67.2179 182.439 66.7019C182.187 66.1859 182.061 65.5799 182.061 64.8839C182.061 64.1879 182.187 63.5819 182.439 63.0659C182.691 62.5499 183.045 62.1479 183.501 61.8599C183.957 61.5719 184.479 61.4279 185.067 61.4279C185.679 61.4279 186.207 61.5719 186.651 61.8599C187.107 62.1479 187.461 62.5499 187.713 63.0659C187.965 63.5819 188.091 64.1879 188.091 64.8839C188.091 65.5799 187.965 66.1859 187.713 66.7019C187.461 67.2179 187.107 67.6199 186.651 67.9079C186.207 68.1959 185.679 68.3399 185.067 68.3399ZM185.067 67.0799C185.547 67.0799 185.925 66.8879 186.201 66.5039C186.477 66.1199 186.615 65.5799 186.615 64.8839C186.615 64.1879 186.477 63.6479 186.201 63.2639C185.925 62.8799 185.547 62.6879 185.067 62.6879C184.599 62.6879 184.221 62.8799 183.933 63.2639C183.657 63.6359 183.519 64.1759 183.519 64.8839C183.519 65.5919 183.657 66.1379 183.933 66.5219C184.221 66.8939 184.599 67.0799 185.067 67.0799Z" fill="#1CB066"/>
</svg>
