<svg width="93" height="15" viewBox="0 0 93 15" fill="none" xmlns="http://www.w3.org/2000/svg">
<path d="M0.76 14V11.9L9.42 1.46L9.82 2.64H0.92V-9.53674e-07H12.7V2.1L4.06 12.54L3.66 11.36H13V14H0.76ZM19.2808 14.16C18.0541 14.16 16.9741 13.92 16.0408 13.44C15.1208 12.96 14.4074 12.3067 13.9008 11.48C13.3941 10.64 13.1408 9.68667 13.1408 8.62C13.1408 7.54 13.3874 6.58667 13.8808 5.76C14.3874 4.92 15.0741 4.26667 15.9408 3.8C16.8074 3.32 17.7874 3.08 18.8808 3.08C19.9341 3.08 20.8808 3.30667 21.7208 3.76C22.5741 4.2 23.2474 4.84 23.7408 5.68C24.2341 6.50667 24.4808 7.5 24.4808 8.66C24.4808 8.78 24.4741 8.92 24.4608 9.08C24.4474 9.22667 24.4341 9.36667 24.4208 9.5H15.6808V7.68H22.7808L21.5808 8.22C21.5808 7.66 21.4674 7.17333 21.2408 6.76C21.0141 6.34667 20.7008 6.02667 20.3008 5.8C19.9008 5.56 19.4341 5.44 18.9008 5.44C18.3674 5.44 17.8941 5.56 17.4808 5.8C17.0808 6.02667 16.7674 6.35333 16.5408 6.78C16.3141 7.19333 16.2008 7.68667 16.2008 8.26V8.74C16.2008 9.32667 16.3274 9.84667 16.5808 10.3C16.8474 10.74 17.2141 11.08 17.6808 11.32C18.1608 11.5467 18.7208 11.66 19.3608 11.66C19.9341 11.66 20.4341 11.5733 20.8608 11.4C21.3008 11.2267 21.7008 10.9667 22.0608 10.62L23.7208 12.42C23.2274 12.98 22.6074 13.4133 21.8608 13.72C21.1141 14.0133 20.2541 14.16 19.2808 14.16ZM32.298 3.08C33.1513 3.08 33.9113 3.25333 34.578 3.6C35.258 3.93333 35.7913 4.45333 36.178 5.16C36.5646 5.85333 36.758 6.74667 36.758 7.84V14H33.638V8.32C33.638 7.45333 33.4446 6.81333 33.058 6.4C32.6846 5.98667 32.1513 5.78 31.458 5.78C30.9646 5.78 30.518 5.88667 30.118 6.1C29.7313 6.3 29.4246 6.61333 29.198 7.04C28.9846 7.46667 28.878 8.01333 28.878 8.68V14H25.758V3.24H28.738V6.22L28.178 5.32C28.5646 4.6 29.118 4.04667 29.838 3.66C30.558 3.27333 31.378 3.08 32.298 3.08ZM39.0061 14V-9.53674e-07H45.0661C46.3194 -9.53674e-07 47.3994 0.206666 48.3061 0.619999C49.2128 1.02 49.9128 1.6 50.4061 2.36C50.8994 3.12 51.1461 4.02667 51.1461 5.08C51.1461 6.12 50.8994 7.02 50.4061 7.78C49.9128 8.52667 49.2128 9.1 48.3061 9.5C47.3994 9.9 46.3194 10.1 45.0661 10.1H40.8061L42.2461 8.68V14H39.0061ZM47.9061 14L44.4061 8.92H47.8661L51.4061 14H47.9061ZM42.2461 9.04L40.8061 7.52H44.8861C45.8861 7.52 46.6328 7.30667 47.1261 6.88C47.6194 6.44 47.8661 5.84 47.8661 5.08C47.8661 4.30667 47.6194 3.70667 47.1261 3.28C46.6328 2.85333 45.8861 2.64 44.8861 2.64H40.8061L42.2461 1.1V9.04ZM58.0331 14.16C56.8065 14.16 55.7265 13.92 54.7931 13.44C53.8731 12.96 53.1598 12.3067 52.6531 11.48C52.1465 10.64 51.8931 9.68667 51.8931 8.62C51.8931 7.54 52.1398 6.58667 52.6331 5.76C53.1398 4.92 53.8265 4.26667 54.6931 3.8C55.5598 3.32 56.5398 3.08 57.6331 3.08C58.6865 3.08 59.6331 3.30667 60.4731 3.76C61.3265 4.2 61.9998 4.84 62.4931 5.68C62.9865 6.50667 63.2331 7.5 63.2331 8.66C63.2331 8.78 63.2265 8.92 63.2131 9.08C63.1998 9.22667 63.1865 9.36667 63.1731 9.5H54.4331V7.68H61.5331L60.3331 8.22C60.3331 7.66 60.2198 7.17333 59.9931 6.76C59.7665 6.34667 59.4531 6.02667 59.0531 5.8C58.6531 5.56 58.1865 5.44 57.6531 5.44C57.1198 5.44 56.6465 5.56 56.2331 5.8C55.8331 6.02667 55.5198 6.35333 55.2931 6.78C55.0665 7.19333 54.9531 7.68667 54.9531 8.26V8.74C54.9531 9.32667 55.0798 9.84667 55.3331 10.3C55.5998 10.74 55.9665 11.08 56.4331 11.32C56.9131 11.5467 57.4731 11.66 58.1131 11.66C58.6865 11.66 59.1865 11.5733 59.6131 11.4C60.0531 11.2267 60.4531 10.9667 60.8131 10.62L62.4731 12.42C61.9798 12.98 61.3598 13.4133 60.6131 13.72C59.8665 14.0133 59.0065 14.16 58.0331 14.16ZM68.1303 14.16C67.2103 14.16 66.3236 14.0533 65.4703 13.84C64.6303 13.6133 63.9636 13.3333 63.4703 13L64.5103 10.76C65.0036 11.0667 65.5836 11.32 66.2503 11.52C66.9303 11.7067 67.597 11.8 68.2503 11.8C68.9703 11.8 69.477 11.7133 69.7703 11.54C70.077 11.3667 70.2303 11.1267 70.2303 10.82C70.2303 10.5667 70.1103 10.38 69.8703 10.26C69.6436 10.1267 69.337 10.0267 68.9503 9.96C68.5636 9.89333 68.137 9.82667 67.6703 9.76C67.217 9.69333 66.757 9.60667 66.2903 9.5C65.8236 9.38 65.397 9.20667 65.0103 8.98C64.6236 8.75333 64.3103 8.44667 64.0703 8.06C63.8436 7.67333 63.7303 7.17333 63.7303 6.56C63.7303 5.88 63.9236 5.28 64.3103 4.76C64.7103 4.24 65.2836 3.83333 66.0303 3.54C66.777 3.23333 67.6703 3.08 68.7103 3.08C69.4436 3.08 70.1903 3.16 70.9503 3.32C71.7103 3.48 72.3436 3.71333 72.8503 4.02L71.8103 6.24C71.2903 5.93333 70.7636 5.72667 70.2303 5.62C69.7103 5.5 69.2036 5.44 68.7103 5.44C68.017 5.44 67.5103 5.53333 67.1903 5.72C66.8703 5.90667 66.7103 6.14667 66.7103 6.44C66.7103 6.70667 66.8236 6.90667 67.0503 7.04C67.2903 7.17333 67.6036 7.28 67.9903 7.36C68.377 7.44 68.797 7.51333 69.2503 7.58C69.717 7.63333 70.1836 7.72 70.6503 7.84C71.117 7.96 71.537 8.13333 71.9103 8.36C72.297 8.57333 72.6103 8.87333 72.8503 9.26C73.0903 9.63333 73.2103 10.1267 73.2103 10.74C73.2103 11.4067 73.0103 12 72.6103 12.52C72.2103 13.0267 71.6303 13.4267 70.8703 13.72C70.1236 14.0133 69.2103 14.16 68.1303 14.16ZM78.7353 14.16C77.4686 14.16 76.482 13.84 75.7753 13.2C75.0686 12.5467 74.7153 11.58 74.7153 10.3V0.86H77.8353V10.26C77.8353 10.7133 77.9553 11.0667 78.1953 11.32C78.4353 11.56 78.762 11.68 79.1753 11.68C79.6686 11.68 80.0886 11.5467 80.4353 11.28L81.2753 13.48C80.9553 13.7067 80.5686 13.88 80.1153 14C79.6753 14.1067 79.2153 14.16 78.7353 14.16ZM73.0553 5.88V3.48H80.5153V5.88H73.0553ZM87.0147 14.16C85.868 14.16 84.848 13.92 83.9547 13.44C83.0747 12.96 82.3747 12.3067 81.8547 11.48C81.348 10.64 81.0947 9.68667 81.0947 8.62C81.0947 7.54 81.348 6.58667 81.8547 5.76C82.3747 4.92 83.0747 4.26667 83.9547 3.8C84.848 3.32 85.868 3.08 87.0147 3.08C88.148 3.08 89.1614 3.32 90.0547 3.8C90.948 4.26667 91.648 4.91333 92.1547 5.74C92.6614 6.56667 92.9147 7.52667 92.9147 8.62C92.9147 9.68667 92.6614 10.64 92.1547 11.48C91.648 12.3067 90.948 12.96 90.0547 13.44C89.1614 13.92 88.148 14.16 87.0147 14.16ZM87.0147 11.6C87.5347 11.6 88.0014 11.48 88.4147 11.24C88.828 11 89.1547 10.66 89.3947 10.22C89.6347 9.76667 89.7547 9.23333 89.7547 8.62C89.7547 7.99333 89.6347 7.46 89.3947 7.02C89.1547 6.58 88.828 6.24 88.4147 6C88.0014 5.76 87.5347 5.64 87.0147 5.64C86.4947 5.64 86.028 5.76 85.6147 6C85.2014 6.24 84.868 6.58 84.6147 7.02C84.3747 7.46 84.2547 7.99333 84.2547 8.62C84.2547 9.23333 84.3747 9.76667 84.6147 10.22C84.868 10.66 85.2014 11 85.6147 11.24C86.028 11.48 86.4947 11.6 87.0147 11.6Z" fill="url(#paint0_linear_364_9161)"/>
<defs>
<linearGradient id="paint0_linear_364_9161" x1="0" y1="7" x2="94" y2="7" gradientUnits="userSpaceOnUse">
<stop stop-color="#00B09B"/>
<stop offset="1" stop-color="#4FF68E"/>
</linearGradient>
</defs>
</svg>
