<svg width="185" height="29" viewBox="0 0 185 29" fill="none" xmlns="http://www.w3.org/2000/svg">
<path d="M0.52 28.2139V24.0139L17.84 3.13387L18.64 5.49387H0.84V0.213865H24.4V4.41387L7.12 25.2939L6.32 22.9339H25V28.2139H0.52ZM37.5616 28.5339C35.1082 28.5339 32.9482 28.0539 31.0816 27.0939C29.2416 26.1339 27.8149 24.8272 26.8016 23.1739C25.7882 21.4939 25.2816 19.5872 25.2816 17.4539C25.2816 15.2939 25.7749 13.3872 26.7616 11.7339C27.7749 10.0539 29.1482 8.7472 30.8816 7.81387C32.6149 6.85387 34.5749 6.37387 36.7616 6.37387C38.8682 6.37387 40.7616 6.8272 42.4416 7.73387C44.1482 8.61387 45.4949 9.89387 46.4816 11.5739C47.4682 13.2272 47.9616 15.2139 47.9616 17.5339C47.9616 17.7739 47.9482 18.0539 47.9216 18.3739C47.8949 18.6672 47.8682 18.9472 47.8416 19.2139H30.3616V15.5739H44.5616L42.1616 16.6539C42.1616 15.5339 41.9349 14.5605 41.4816 13.7339C41.0282 12.9072 40.4016 12.2672 39.6016 11.8139C38.8016 11.3339 37.8682 11.0939 36.8016 11.0939C35.7349 11.0939 34.7882 11.3339 33.9616 11.8139C33.1616 12.2672 32.5349 12.9205 32.0816 13.7739C31.6282 14.6005 31.4016 15.5872 31.4016 16.7339V17.6939C31.4016 18.8672 31.6549 19.9072 32.1616 20.8139C32.6949 21.6939 33.4282 22.3739 34.3616 22.8539C35.3216 23.3072 36.4416 23.5339 37.7216 23.5339C38.8682 23.5339 39.8682 23.3605 40.7216 23.0139C41.6016 22.6672 42.4016 22.1472 43.1216 21.4539L46.4416 25.0539C45.4549 26.1739 44.2149 27.0405 42.7216 27.6539C41.2282 28.2405 39.5082 28.5339 37.5616 28.5339ZM63.5959 6.37387C65.3026 6.37387 66.8226 6.72053 68.1559 7.41387C69.5159 8.08053 70.5826 9.12053 71.3559 10.5339C72.1293 11.9205 72.5159 13.7072 72.5159 15.8939V28.2139H66.2759V16.8539C66.2759 15.1205 65.8893 13.8405 65.1159 13.0139C64.3693 12.1872 63.3026 11.7739 61.9159 11.7739C60.9293 11.7739 60.0359 11.9872 59.2359 12.4139C58.4626 12.8139 57.8493 13.4405 57.3959 14.2939C56.9693 15.1472 56.7559 16.2405 56.7559 17.5739V28.2139H50.5159V6.69387H56.4759V12.6539L55.3559 10.8539C56.1293 9.41387 57.2359 8.3072 58.6759 7.53387C60.1159 6.76053 61.7559 6.37387 63.5959 6.37387ZM77.0122 28.2139V0.213865H89.1322C91.6389 0.213865 93.7989 0.627199 95.6122 1.45387C97.4255 2.25387 98.8255 3.41387 99.8122 4.93387C100.799 6.45387 101.292 8.2672 101.292 10.3739C101.292 12.4539 100.799 14.2539 99.8122 15.7739C98.8255 17.2672 97.4255 18.4139 95.6122 19.2139C93.7989 20.0139 91.6389 20.4139 89.1322 20.4139H80.6122L83.4922 17.5739V28.2139H77.0122ZM94.8122 28.2139L87.8122 18.0539H94.7322L101.812 28.2139H94.8122ZM83.4922 18.2939L80.6122 15.2539H88.7722C90.7722 15.2539 92.2655 14.8272 93.2522 13.9739C94.2389 13.0939 94.7322 11.8939 94.7322 10.3739C94.7322 8.8272 94.2389 7.6272 93.2522 6.77387C92.2655 5.92053 90.7722 5.49387 88.7722 5.49387H80.6122L83.4922 2.41387V18.2939ZM115.066 28.5339C112.613 28.5339 110.453 28.0539 108.586 27.0939C106.746 26.1339 105.32 24.8272 104.306 23.1739C103.293 21.4939 102.786 19.5872 102.786 17.4539C102.786 15.2939 103.28 13.3872 104.266 11.7339C105.28 10.0539 106.653 8.7472 108.386 7.81387C110.12 6.85387 112.08 6.37387 114.266 6.37387C116.373 6.37387 118.266 6.8272 119.946 7.73387C121.653 8.61387 123 9.89387 123.986 11.5739C124.973 13.2272 125.466 15.2139 125.466 17.5339C125.466 17.7739 125.453 18.0539 125.426 18.3739C125.4 18.6672 125.373 18.9472 125.346 19.2139H107.866V15.5739H122.066L119.666 16.6539C119.666 15.5339 119.44 14.5605 118.986 13.7339C118.533 12.9072 117.906 12.2672 117.106 11.8139C116.306 11.3339 115.373 11.0939 114.306 11.0939C113.24 11.0939 112.293 11.3339 111.466 11.8139C110.666 12.2672 110.04 12.9205 109.586 13.7739C109.133 14.6005 108.906 15.5872 108.906 16.7339V17.6939C108.906 18.8672 109.16 19.9072 109.666 20.8139C110.2 21.6939 110.933 22.3739 111.866 22.8539C112.826 23.3072 113.946 23.5339 115.226 23.5339C116.373 23.5339 117.373 23.3605 118.226 23.0139C119.106 22.6672 119.906 22.1472 120.626 21.4539L123.946 25.0539C122.96 26.1739 121.72 27.0405 120.226 27.6539C118.733 28.2405 117.013 28.5339 115.066 28.5339ZM135.261 28.5339C133.421 28.5339 131.647 28.3205 129.941 27.8939C128.261 27.4405 126.927 26.8805 125.941 26.2139L128.021 21.7339C129.007 22.3472 130.167 22.8539 131.501 23.2539C132.861 23.6272 134.194 23.8139 135.501 23.8139C136.941 23.8139 137.954 23.6405 138.541 23.2939C139.154 22.9472 139.461 22.4672 139.461 21.8539C139.461 21.3472 139.221 20.9739 138.741 20.7339C138.287 20.4672 137.674 20.2672 136.901 20.1339C136.127 20.0005 135.274 19.8672 134.341 19.7339C133.434 19.6005 132.514 19.4272 131.581 19.2139C130.647 18.9739 129.794 18.6272 129.021 18.1739C128.247 17.7205 127.621 17.1072 127.141 16.3339C126.687 15.5605 126.461 14.5605 126.461 13.3339C126.461 11.9739 126.847 10.7739 127.621 9.73387C128.421 8.69387 129.567 7.88053 131.061 7.29387C132.554 6.68053 134.341 6.37387 136.421 6.37387C137.887 6.37387 139.381 6.53387 140.901 6.85387C142.421 7.17387 143.687 7.64053 144.701 8.25387L142.621 12.6939C141.581 12.0805 140.527 11.6672 139.461 11.4539C138.421 11.2139 137.407 11.0939 136.421 11.0939C135.034 11.0939 134.021 11.2805 133.381 11.6539C132.741 12.0272 132.421 12.5072 132.421 13.0939C132.421 13.6272 132.647 14.0272 133.101 14.2939C133.581 14.5605 134.207 14.7739 134.981 14.9339C135.754 15.0939 136.594 15.2405 137.501 15.3739C138.434 15.4805 139.367 15.6539 140.301 15.8939C141.234 16.1339 142.074 16.4805 142.821 16.9339C143.594 17.3605 144.221 17.9605 144.701 18.7339C145.181 19.4805 145.421 20.4672 145.421 21.6939C145.421 23.0272 145.021 24.2139 144.221 25.2539C143.421 26.2672 142.261 27.0672 140.741 27.6539C139.247 28.2405 137.421 28.5339 135.261 28.5339ZM156.471 28.5339C153.937 28.5339 151.964 27.8939 150.551 26.6139C149.137 25.3072 148.431 23.3739 148.431 20.8139V1.93387H154.671V20.7339C154.671 21.6405 154.911 22.3472 155.391 22.8539C155.871 23.3339 156.524 23.5739 157.351 23.5739C158.337 23.5739 159.177 23.3072 159.871 22.7739L161.551 27.1739C160.911 27.6272 160.137 27.9739 159.231 28.2139C158.351 28.4272 157.431 28.5339 156.471 28.5339ZM145.111 11.9739V7.17387H160.031V11.9739H145.111ZM173.029 28.5339C170.736 28.5339 168.696 28.0539 166.909 27.0939C165.149 26.1339 163.749 24.8272 162.709 23.1739C161.696 21.4939 161.189 19.5872 161.189 17.4539C161.189 15.2939 161.696 13.3872 162.709 11.7339C163.749 10.0539 165.149 8.7472 166.909 7.81387C168.696 6.85387 170.736 6.37387 173.029 6.37387C175.296 6.37387 177.323 6.85387 179.109 7.81387C180.896 8.7472 182.296 10.0405 183.309 11.6939C184.323 13.3472 184.829 15.2672 184.829 17.4539C184.829 19.5872 184.323 21.4939 183.309 23.1739C182.296 24.8272 180.896 26.1339 179.109 27.0939C177.323 28.0539 175.296 28.5339 173.029 28.5339ZM173.029 23.4139C174.069 23.4139 175.003 23.1739 175.829 22.6939C176.656 22.2139 177.309 21.5339 177.789 20.6539C178.269 19.7472 178.509 18.6805 178.509 17.4539C178.509 16.2005 178.269 15.1339 177.789 14.2539C177.309 13.3739 176.656 12.6939 175.829 12.2139C175.003 11.7339 174.069 11.4939 173.029 11.4939C171.989 11.4939 171.056 11.7339 170.229 12.2139C169.403 12.6939 168.736 13.3739 168.229 14.2539C167.749 15.1339 167.509 16.2005 167.509 17.4539C167.509 18.6805 167.749 19.7472 168.229 20.6539C168.736 21.5339 169.403 22.2139 170.229 22.6939C171.056 23.1739 171.989 23.4139 173.029 23.4139Z" fill="url(#paint0_linear_270_7034)"/>
<defs>
<linearGradient id="paint0_linear_270_7034" x1="-1" y1="13.7139" x2="187" y2="13.7139" gradientUnits="userSpaceOnUse">
<stop stop-color="#00B09B"/>
<stop offset="1" stop-color="#4FF68E"/>
</linearGradient>
</defs>
</svg>
