<svg width="20" height="20" viewBox="0 0 20 20" fill="none" xmlns="http://www.w3.org/2000/svg">
<path d="M7 10.9639L9.25 13.2139L13 7.96387M19 10.2139C19 11.3958 18.7672 12.5661 18.3149 13.658C17.8626 14.7499 17.1997 15.7421 16.364 16.5778C15.5282 17.4136 14.5361 18.0765 13.4442 18.5288C12.3522 18.9811 11.1819 19.2139 10 19.2139C8.8181 19.2139 7.64778 18.9811 6.55585 18.5288C5.46392 18.0765 4.47177 17.4136 3.63604 16.5778C2.80031 15.7421 2.13738 14.7499 1.68508 13.658C1.23279 12.5661 1 11.3958 1 10.2139C1 7.82692 1.94821 5.53773 3.63604 3.84991C5.32387 2.16208 7.61305 1.21387 10 1.21387C12.3869 1.21387 14.6761 2.16208 16.364 3.84991C18.0518 5.53773 19 7.82692 19 10.2139Z" stroke="white" stroke-width="1.5" stroke-linecap="round" stroke-linejoin="round"/>
</svg>
