<svg width="64" height="65" viewBox="0 0 64 65" fill="none" xmlns="http://www.w3.org/2000/svg">
<path d="M40 10.2139C35.9142 10.217 31.9098 11.3567 28.4348 13.5055C24.9597 15.6543 22.1509 18.7275 20.3225 22.3814C18.1474 22.0641 15.9303 22.1985 13.8094 22.7761C11.6885 23.3536 9.70937 24.362 7.99545 25.7383C6.28153 27.1146 4.86958 28.8293 3.84766 30.7754C2.82575 32.7215 2.21579 34.8573 2.05585 37.0496C1.8959 39.2419 2.18938 41.4436 2.918 43.5175C3.64662 45.5913 4.79474 47.4928 6.29074 49.1033C7.78675 50.7137 9.59855 51.9987 11.6131 52.878C13.6277 53.7573 15.8019 54.212 18 54.2139H40C45.8348 54.2139 51.4305 51.896 55.5563 47.7702C59.6821 43.6444 62 38.0486 62 32.2139C62 26.3791 59.6821 20.7833 55.5563 16.6575C51.4305 12.5317 45.8348 10.2139 40 10.2139ZM40 50.2139H18C14.8174 50.2139 11.7651 48.9496 9.51471 46.6992C7.26427 44.4487 5.99999 41.3965 5.99999 38.2139C5.99999 35.0313 7.26427 31.979 9.51471 29.7286C11.7651 27.4781 14.8174 26.2139 18 26.2139C18.275 26.2139 18.55 26.2139 18.8225 26.2414C18.2755 28.185 17.9988 30.1947 18 32.2139C18 32.7443 18.2107 33.253 18.5858 33.6281C18.9608 34.0032 19.4696 34.2139 20 34.2139C20.5304 34.2139 21.0391 34.0032 21.4142 33.6281C21.7893 33.253 22 32.7443 22 32.2139C22 28.6538 23.0557 25.1737 25.0335 22.2136C27.0114 19.2535 29.8226 16.9464 33.1117 15.584C36.4008 14.2217 40.02 13.8652 43.5116 14.5597C47.0033 15.2543 50.2106 16.9686 52.7279 19.4859C55.2453 22.0033 56.9596 25.2106 57.6541 28.7022C58.3487 32.1939 57.9922 35.8131 56.6298 39.1022C55.2674 42.3912 52.9603 45.2025 50.0003 47.1803C47.0402 49.1582 43.5601 50.2139 40 50.2139ZM49.415 26.7989C49.6009 26.9846 49.7485 27.2052 49.8491 27.448C49.9498 27.6908 50.0016 27.951 50.0016 28.2139C50.0016 28.4767 49.9498 28.737 49.8491 28.9797C49.7485 29.2225 49.6009 29.4431 49.415 29.6289L37.415 41.6289C37.2292 41.8148 37.0087 41.9623 36.7659 42.063C36.5231 42.1636 36.2628 42.2154 36 42.2154C35.7372 42.2154 35.4769 42.1636 35.2341 42.063C34.9913 41.9623 34.7707 41.8148 34.585 41.6289L28.585 35.6289C28.2097 35.2536 27.9989 34.7446 27.9989 34.2139C27.9989 33.6831 28.2097 33.1741 28.585 32.7989C28.9603 32.4236 29.4693 32.2128 30 32.2128C30.5307 32.2128 31.0397 32.4236 31.415 32.7989L36 37.3864L46.585 26.7989C46.7707 26.6129 46.9913 26.4654 47.2341 26.3647C47.4769 26.2641 47.7372 26.2123 48 26.2123C48.2628 26.2123 48.5231 26.2641 48.7659 26.3647C49.0087 26.4654 49.2292 26.6129 49.415 26.7989Z" fill="url(#paint0_linear_270_294)"/>
<defs>
<linearGradient id="paint0_linear_270_294" x1="2.01343" y1="32.2139" x2="62" y2="32.2139" gradientUnits="userSpaceOnUse">
<stop stop-color="#00B09B"/>
<stop offset="1" stop-color="#4FF68E"/>
</linearGradient>
</defs>
</svg>
