<svg width="64" height="65" viewBox="0 0 64 65" fill="none" xmlns="http://www.w3.org/2000/svg">
<path d="M50.4725 13.8789C48.08 11.4623 45.2343 9.54141 42.0985 8.22613C38.9626 6.91086 35.598 6.22705 32.1975 6.21387H32C25.1044 6.21387 18.4912 8.95315 13.6152 13.8291C8.73928 18.705 6 25.3182 6 32.2139V46.2139C6 47.8052 6.63214 49.3313 7.75736 50.4565C8.88258 51.5817 10.4087 52.2139 12 52.2139H16C17.5913 52.2139 19.1174 51.5817 20.2426 50.4565C21.3679 49.3313 22 47.8052 22 46.2139V36.2139C22 34.6226 21.3679 33.0964 20.2426 31.9712C19.1174 30.846 17.5913 30.2139 16 30.2139H10.09C10.4757 26.0437 12.0421 22.0699 14.6056 18.7581C17.169 15.4464 20.6234 12.9339 24.5637 11.5153C28.5041 10.0966 32.7672 9.8305 36.8534 10.7481C40.9396 11.6658 44.6796 13.7291 47.635 16.6964C51.2472 20.3271 53.4691 25.1115 53.9125 30.2139H48C46.4087 30.2139 44.8826 30.846 43.7574 31.9712C42.6321 33.0964 42 34.6226 42 36.2139V46.2139C42 47.8052 42.6321 49.3313 43.7574 50.4565C44.8826 51.5817 46.4087 52.2139 48 52.2139H54C54 53.8052 53.3679 55.3313 52.2426 56.4565C51.1174 57.5817 49.5913 58.2139 48 58.2139H34C33.4696 58.2139 32.9609 58.4246 32.5858 58.7997C32.2107 59.1747 32 59.6834 32 60.2139C32 60.7443 32.2107 61.253 32.5858 61.6281C32.9609 62.0032 33.4696 62.2139 34 62.2139H48C50.6522 62.2139 53.1957 61.1603 55.0711 59.2849C56.9464 57.4096 58 54.866 58 52.2139V32.2139C58.013 28.8128 57.3548 25.4426 56.0631 22.2963C54.7714 19.1501 52.8716 16.2896 50.4725 13.8789ZM16 34.2139C16.5304 34.2139 17.0391 34.4246 17.4142 34.7997C17.7893 35.1747 18 35.6834 18 36.2139V46.2139C18 46.7443 17.7893 47.253 17.4142 47.6281C17.0391 48.0032 16.5304 48.2139 16 48.2139H12C11.4696 48.2139 10.9609 48.0032 10.5858 47.6281C10.2107 47.253 10 46.7443 10 46.2139V34.2139H16ZM48 48.2139C47.4696 48.2139 46.9609 48.0032 46.5858 47.6281C46.2107 47.253 46 46.7443 46 46.2139V36.2139C46 35.6834 46.2107 35.1747 46.5858 34.7997C46.9609 34.4246 47.4696 34.2139 48 34.2139H54V48.2139H48Z" fill="url(#paint0_linear_270_306)"/>
<defs>
<linearGradient id="paint0_linear_270_306" x1="6" y1="34.2139" x2="58.0002" y2="34.2139" gradientUnits="userSpaceOnUse">
<stop stop-color="#00B09B"/>
<stop offset="1" stop-color="#4FF68E"/>
</linearGradient>
</defs>
</svg>
