<svg width="64" height="65" viewBox="0 0 64 65" fill="none" xmlns="http://www.w3.org/2000/svg">
<path d="M32 28.2139C30.319 28.2144 28.6943 28.8199 27.423 29.9196C26.1516 31.0193 25.3184 32.5398 25.0757 34.2032C24.833 35.8666 25.197 37.5618 26.1012 38.9789C27.0053 40.3961 28.3892 41.4405 30 41.9214V46.2139C30 46.7443 30.2107 47.253 30.5858 47.6281C30.9609 48.0032 31.4696 48.2139 32 48.2139C32.5304 48.2139 33.0391 48.0032 33.4142 47.6281C33.7893 47.253 34 46.7443 34 46.2139V41.9214C35.6108 41.4405 36.9947 40.3961 37.8988 38.9789C38.803 37.5618 39.167 35.8666 38.9243 34.2032C38.6816 32.5398 37.8484 31.0193 36.577 29.9196C35.3057 28.8199 33.681 28.2144 32 28.2139ZM32 38.2139C31.4067 38.2139 30.8266 38.0379 30.3333 37.7083C29.8399 37.3786 29.4554 36.9101 29.2284 36.3619C29.0013 35.8137 28.9419 35.2105 29.0576 34.6286C29.1734 34.0467 29.4591 33.5121 29.8787 33.0925C30.2982 32.673 30.8328 32.3873 31.4147 32.2715C31.9967 32.1558 32.5999 32.2152 33.148 32.4422C33.6962 32.6693 34.1648 33.0538 34.4944 33.5472C34.8241 34.0405 35 34.6205 35 35.2139C35 36.0095 34.6839 36.7726 34.1213 37.3352C33.5587 37.8978 32.7956 38.2139 32 38.2139ZM52 20.2139H44V14.2139C44 11.0313 42.7357 7.97902 40.4853 5.72859C38.2348 3.47815 35.1826 2.21387 32 2.21387C28.8174 2.21387 25.7652 3.47815 23.5147 5.72859C21.2643 7.97902 20 11.0313 20 14.2139V20.2139H12C10.9391 20.2139 9.92172 20.6353 9.17157 21.3854C8.42143 22.1356 8 23.153 8 24.2139V52.2139C8 53.2747 8.42143 54.2921 9.17157 55.0423C9.92172 55.7924 10.9391 56.2139 12 56.2139H52C53.0609 56.2139 54.0783 55.7924 54.8284 55.0423C55.5786 54.2921 56 53.2747 56 52.2139V24.2139C56 23.153 55.5786 22.1356 54.8284 21.3854C54.0783 20.6353 53.0609 20.2139 52 20.2139ZM24 14.2139C24 12.0921 24.8429 10.0573 26.3431 8.55701C27.8434 7.05672 29.8783 6.21387 32 6.21387C34.1217 6.21387 36.1566 7.05672 37.6569 8.55701C39.1571 10.0573 40 12.0921 40 14.2139V20.2139H24V14.2139ZM52 52.2139H12V24.2139H52V52.2139Z" fill="url(#paint0_linear_270_312)"/>
<defs>
<linearGradient id="paint0_linear_270_312" x1="8" y1="29.2139" x2="56" y2="29.2139" gradientUnits="userSpaceOnUse">
<stop stop-color="#00B09B"/>
<stop offset="1" stop-color="#4FF68E"/>
</linearGradient>
</defs>
</svg>
