<svg width="20" height="21" viewBox="0 0 20 21" fill="none" xmlns="http://www.w3.org/2000/svg">
<path d="M17.7594 2.4547C17.6022 2.29762 17.406 2.18527 17.1909 2.12925C16.9759 2.07322 16.7498 2.07553 16.5359 2.13595H16.5242L1.52891 6.68595C1.28481 6.75615 1.06789 6.89904 0.907035 7.0956C0.746176 7.29216 0.649012 7.53306 0.628481 7.78622C0.60795 8.03938 0.665026 8.29278 0.79211 8.51269C0.919194 8.7326 1.11025 8.90859 1.33985 9.0172L8.02891 12.1852L11.1969 18.8742C11.2969 19.0884 11.4561 19.2696 11.6557 19.3962C11.8553 19.5229 12.087 19.5898 12.3234 19.5891C12.3594 19.5891 12.3953 19.5875 12.4313 19.5844C12.6835 19.564 12.9235 19.4669 13.119 19.3061C13.3145 19.1454 13.4562 18.9287 13.525 18.6852L18.0719 3.68986C18.0719 3.68595 18.0719 3.68204 18.0719 3.67814C18.1331 3.46483 18.1364 3.23907 18.0815 3.02406C18.0266 2.80905 17.9154 2.61253 17.7594 2.4547ZM12.3305 18.3274L12.3266 18.3383L9.25157 11.8469L12.9422 8.15548C13.0545 8.03732 13.1161 7.87997 13.114 7.717C13.1119 7.55402 13.0463 7.39831 12.931 7.28306C12.8158 7.16781 12.6601 7.10214 12.4971 7.10005C12.3341 7.09796 12.1768 7.15962 12.0586 7.27189L8.36719 10.9625L1.87501 7.88751H1.88594L16.875 3.33907L12.3305 18.3274Z" fill="#9194A6"/>
</svg>
