<svg width="64" height="65" viewBox="0 0 64 65" fill="none" xmlns="http://www.w3.org/2000/svg">
<path d="M53.48 52.869C53.6603 53.0627 53.8004 53.2903 53.8922 53.5386C53.9839 53.7868 54.0254 54.0508 54.0144 54.3153C54.0033 54.5797 53.9399 54.8393 53.8278 55.079C53.7157 55.3188 53.5571 55.5339 53.3612 55.7119C53.1654 55.8899 52.9361 56.0272 52.6868 56.116C52.4374 56.2047 52.173 56.2431 51.9087 56.2289C51.6444 56.2147 51.3856 56.1481 51.1472 56.0332C50.9088 55.9182 50.6956 55.757 50.52 55.559L37.52 41.2715C35.1691 40.3387 32.6205 40.0156 30.1111 40.332C27.6018 40.6485 25.2132 41.5943 23.1675 43.0815C22.9556 43.2417 22.7139 43.358 22.4566 43.4237C22.1993 43.4894 21.9314 43.5033 21.6687 43.4644C21.406 43.4255 21.1536 43.3346 20.9264 43.1971C20.6991 43.0597 20.5016 42.8783 20.3452 42.6636C20.1888 42.4489 20.0767 42.2053 20.0155 41.9468C19.9543 41.6884 19.9452 41.4203 19.9887 41.1583C20.0322 40.8963 20.1274 40.6456 20.2689 40.4208C20.4103 40.196 20.5951 40.0016 20.8125 39.849C24.0587 37.4755 27.9786 36.2018 32 36.214C32.32 36.214 32.6375 36.214 32.955 36.239L26.225 28.8365C22.2188 29.7154 18.4655 31.4955 15.25 34.0415C15.0438 34.2057 14.8072 34.3276 14.5537 34.4C14.3003 34.4725 14.035 34.4941 13.7732 34.4637C13.5113 34.4332 13.2581 34.3513 13.028 34.2227C12.7979 34.094 12.5955 33.9212 12.4325 33.714C12.1029 33.2994 11.9512 32.771 12.0107 32.2446C12.0702 31.7183 12.3361 31.2371 12.75 30.9065C15.8498 28.4547 19.3889 26.6168 23.1775 25.4915L17.3425 19.064C13.7009 20.5431 10.3047 22.5661 7.27 25.064C7.06645 25.2308 6.83205 25.3559 6.58017 25.4321C6.32829 25.5082 6.06387 25.5341 5.80201 25.5081C5.54015 25.4821 5.28597 25.4048 5.054 25.2805C4.82202 25.1563 4.61678 24.9876 4.45 24.784C4.28322 24.5805 4.15817 24.3461 4.08198 24.0942C4.00579 23.8423 3.97996 23.5779 4.00596 23.316C4.05847 22.7872 4.31892 22.3009 4.73 21.964C7.70196 19.5243 10.988 17.4945 14.5 15.929L10.52 11.559C10.3397 11.3653 10.1996 11.1377 10.1078 10.8895C10.0161 10.6412 9.97457 10.3772 9.98562 10.1128C9.99667 9.84837 10.0601 9.58876 10.1722 9.34902C10.2843 9.10928 10.4429 8.89418 10.6388 8.71618C10.8346 8.53818 11.0639 8.40083 11.3132 8.31208C11.5626 8.22334 11.827 8.18496 12.0913 8.19918C12.3556 8.21339 12.6144 8.27992 12.8528 8.39491C13.0912 8.5099 13.3044 8.67105 13.48 8.86903L53.48 52.869ZM32 48.214C31.4067 48.214 30.8266 48.39 30.3333 48.7196C29.8399 49.0493 29.4554 49.5178 29.2284 50.066C29.0013 50.6142 28.9419 51.2174 29.0576 51.7993C29.1734 52.3812 29.4591 52.9158 29.8787 53.3354C30.2982 53.7549 30.8328 54.0406 31.4147 54.1564C31.9967 54.2721 32.5999 54.2127 33.1481 53.9857C33.6962 53.7586 34.1648 53.3741 34.4944 52.8807C34.8241 52.3874 35 51.8074 35 51.214C35 50.4184 34.6839 49.6553 34.1213 49.0927C33.5587 48.5301 32.7957 48.214 32 48.214ZM59.27 21.964C54.7348 18.2499 49.4893 15.5004 43.8545 13.8841C38.2198 12.2678 32.3144 11.8186 26.5 12.564C26.2348 12.5911 25.9776 12.6709 25.7437 12.7988C25.5097 12.9268 25.3037 13.1001 25.1378 13.3088C24.9718 13.5175 24.8492 13.7572 24.7773 14.014C24.7053 14.2707 24.6854 14.5392 24.7188 14.8038C24.7521 15.0683 24.838 15.3235 24.9714 15.5543C25.1048 15.7852 25.283 15.987 25.4956 16.148C25.7081 16.309 25.9507 16.4259 26.2091 16.4917C26.4674 16.5576 26.7363 16.5711 27 16.5315C28.6583 16.3202 30.3283 16.2142 32 16.214C41.0168 16.219 49.7543 19.3432 56.73 25.0565C57.1401 25.3934 57.6672 25.5535 58.1953 25.5017C58.7235 25.4499 59.2094 25.1904 59.5462 24.7803C59.8831 24.3702 60.0432 23.8431 59.9914 23.3149C59.9396 22.7868 59.6801 22.3009 59.27 21.964ZM48.75 34.0415C48.9558 34.2047 49.1918 34.3258 49.4444 34.3978C49.6971 34.4698 49.9614 34.4913 50.2223 34.4611C50.4833 34.4309 50.7357 34.3496 50.9652 34.2219C51.1947 34.0941 51.3969 33.9224 51.56 33.7165C51.7232 33.5107 51.8442 33.2747 51.9162 33.0221C51.9882 32.7695 52.0097 32.5052 51.9796 32.2442C51.9494 31.9833 51.8681 31.7308 51.7403 31.5013C51.6126 31.2718 51.4409 31.0697 51.235 30.9065C47.4524 27.9131 43.0246 25.8417 38.3025 24.8565C38.0426 24.7968 37.7734 24.7896 37.5107 24.8354C37.248 24.8812 36.9971 24.9791 36.7727 25.1233C36.5484 25.2675 36.3552 25.4552 36.2045 25.6752C36.0537 25.8951 35.9485 26.1431 35.895 26.4043C35.8415 26.6656 35.8407 26.9349 35.8928 27.1964C35.9449 27.4579 36.0488 27.7064 36.1984 27.9272C36.3479 28.148 36.5401 28.3367 36.7636 28.4821C36.9872 28.6275 37.2375 28.7268 37.5 28.774C41.6081 29.6327 45.4598 31.4361 48.75 34.0415Z" fill="url(#paint0_linear_270_300)"/>
<defs>
<linearGradient id="paint0_linear_270_300" x1="3.99615" y1="32.214" x2="60.001" y2="32.214" gradientUnits="userSpaceOnUse">
<stop stop-color="#00B09B"/>
<stop offset="1" stop-color="#4FF68E"/>
</linearGradient>
</defs>
</svg>
